<svg width="51" height="50" viewBox="0 0 51 50" fill="none" xmlns="http://www.w3.org/2000/svg">
<path d="M46.375 12.5V13.5H47.375H48.1562C48.8982 13.5 49.5 14.1014 49.5 14.8438V22.6562C49.5 23.3979 48.8979 24 48.1562 24H47.375H46.375V25V41.25C46.375 42.0314 45.8051 42.75 44.875 42.75H44.25H43.25V43.75V46.875C43.25 48.0483 42.2983 49 41.125 49H38C36.8267 49 35.875 48.0483 35.875 46.875V43.75V42.75H34.875H16.125H15.125V43.75V46.875C15.125 48.0483 14.1733 49 13 49H9.875C8.7017 49 7.75 48.0483 7.75 46.875V43.75V42.75H6.75C5.5767 42.75 4.625 41.7983 4.625 40.625V25V24H3.625H2.84375C2.10209 24 1.5 23.3979 1.5 22.6562V14.8438C1.5 14.1014 2.10182 13.5 2.84375 13.5H3.625H4.625V12.5V7.8125C4.625 7.1194 5.00437 6.3378 5.97822 5.50678C6.95047 4.67712 8.41882 3.88805 10.3279 3.20758C14.1378 1.84962 19.487 1 25.5 1C31.513 1 36.8622 1.84962 40.6721 3.20758C42.5812 3.88805 44.0495 4.67712 45.0218 5.50678C45.9956 6.3378 46.375 7.1194 46.375 7.8125V12.5ZM7.3125 35.9375C7.3125 38.2154 9.15963 40.0625 11.4375 40.0625C13.7154 40.0625 15.5625 38.2154 15.5625 35.9375C15.5625 33.6596 13.7154 31.8125 11.4375 31.8125C9.15963 31.8125 7.3125 33.6596 7.3125 35.9375ZM8.875 25C8.875 27.2779 10.7221 29.125 13 29.125H38C40.2779 29.125 42.125 27.2779 42.125 25V12.5C42.125 10.2221 40.2779 8.375 38 8.375H13C10.7221 8.375 8.875 10.2221 8.875 12.5V25ZM35.4375 35.9375C35.4375 38.2154 37.2846 40.0625 39.5625 40.0625C41.8404 40.0625 43.6875 38.2154 43.6875 35.9375C43.6875 33.6596 41.8404 31.8125 39.5625 31.8125C37.2846 31.8125 35.4375 33.6596 35.4375 35.9375Z" stroke="#A40001" stroke-width="2"/>
</svg>
