<svg width="59" height="31" viewBox="0 0 59 31" fill="none" xmlns="http://www.w3.org/2000/svg">
<path d="M57.1981 21.4837L57.1982 21.4837C57.4144 21.3013 57.4828 21.1029 57.4829 20.9447C57.4829 20.7865 57.4144 20.5881 57.1982 20.4057L56.2131 19.5745C56.2131 19.5745 56.2131 19.5745 56.2131 19.5745C55.7205 19.1589 54.8622 19.173 54.3913 19.5937L50.7125 22.8801L49.0463 24.3687V22.1344V5.07578C49.0463 4.76258 48.682 4.23259 47.8618 4.23259H25.6935C25.0686 4.23259 24.7056 4.54082 24.5729 4.8111C24.4571 5.04705 24.462 5.33495 24.7937 5.61486L57.1981 21.4837ZM57.1981 21.4837L48.0335 29.2164C48.0335 29.2164 48.0335 29.2164 48.0335 29.2164C47.5528 29.6219 46.7145 29.6219 46.2339 29.2164C46.2338 29.2164 46.2338 29.2164 46.2338 29.2164L37.0691 21.4837C36.8529 21.3013 36.7844 21.1028 36.7844 20.9447C36.7844 20.7865 36.8529 20.5881 37.0691 20.4057L37.0691 20.4057L38.0543 19.5745C38.5468 19.1589 39.405 19.1729 39.8761 19.5937L43.5547 22.8801L45.2209 24.3687V22.1344V8.14777V7.14777H44.2209H27.1499M57.1981 21.4837L27.1499 7.14777M27.1499 7.14777C27.1499 7.14777 27.1499 7.14777 27.1499 7.14777C26.786 7.14774 26.4642 7.02433 26.25 6.84365C26.25 6.84363 26.25 6.84361 26.2499 6.84358L24.7937 5.61488L27.1499 7.14777ZM32.1649 23.8933H32.1649C32.342 23.8933 32.5143 23.9228 32.671 23.9776C32.8277 24.0324 32.9604 24.1093 33.0648 24.1974L33.7096 23.4331L33.0648 24.1974L34.5212 25.4262C34.8529 25.7061 34.8578 25.994 34.7419 26.23C34.6093 26.5003 34.2463 26.8085 33.6213 26.8085H11.4531C10.6329 26.8085 10.2685 26.2785 10.2685 25.9653V8.90663V6.67231L8.60232 8.16088L4.92362 11.4473C4.92361 11.4473 4.92359 11.4474 4.92358 11.4474C4.45251 11.8681 3.5943 11.8821 3.1018 11.4665L2.45693 12.2308L3.1018 11.4665L2.11676 10.6354L2.11672 10.6354C1.9005 10.453 1.83203 10.2545 1.83203 10.0964C1.83203 9.93825 1.9005 9.7398 2.11676 9.55733L11.2815 1.82468L11.2815 1.82465C11.7621 1.41914 12.6004 1.4191 13.0811 1.82468L13.7247 1.06186L13.0811 1.82468L22.2457 9.55726L22.2458 9.55729C22.462 9.73971 22.5305 9.93812 22.5305 10.0963C22.5305 10.2544 22.462 10.4529 22.2457 10.6353L21.2607 11.4665C20.7681 11.8821 19.91 11.8681 19.4389 11.4473L15.7602 8.16087L14.0939 6.67235V8.90663V22.8933V23.8933H15.0939H32.1649Z" stroke="#A40001" stroke-width="2"/>
</svg>
