<svg width="241" height="30" viewBox="0 0 241 30" fill="none" xmlns="http://www.w3.org/2000/svg">
<circle cx="15" cy="15" r="14.5" stroke="#DFDEDE"/>
<path fill-rule="evenodd" clip-rule="evenodd" d="M101.727 6.94336H104.697V23.9612H101.727V6.94336Z" fill="#2A3362"/>
<path d="M116.183 17.9227C116.183 20.2714 114.826 21.3267 113.019 21.3267C111.213 21.3267 110.005 20.2714 110.005 18.0418V11.9771H107.035V18.8097C107.035 22.2116 108.951 24.201 112.136 24.201C114.138 24.201 115.258 23.3798 116.008 22.4518H116.181L116.439 23.9629H119.171V11.9771H116.183V17.9227Z" fill="#2A3362"/>
<path d="M145.323 21.59C143.15 21.59 141.924 20.4875 141.73 18.882H151.156C151.2 18.5482 151.221 18.2112 151.221 17.8739C151.201 13.5625 148.271 11.7373 145.137 11.7373C141.5 11.7373 138.766 14.1599 138.766 18.0669C138.766 21.7809 141.393 24.2015 145.331 24.2015C148.625 24.2015 150.819 22.5734 151.272 20.0789H148.338C147.971 21.0623 146.916 21.59 145.323 21.59ZM145.139 14.3509C147.034 14.3509 148.131 15.285 148.304 16.6092H141.795C142.073 15.3404 143.172 14.3509 145.13 14.3509H145.139Z" fill="#2A3362"/>
<path d="M156.261 13.6978H156.077L155.797 11.9712H153.098V23.9632H156.068V18.81C156.068 16.4838 157.272 15.1904 159.511 15.1904C159.918 15.184 160.325 15.2241 160.725 15.3095V11.9774H160.31C158.33 11.9774 157.1 12.4331 156.261 13.6978Z" fill="#2A3362"/>
<path d="M175.318 20.2222H175.147L172.606 12.7203H169.55L167.053 20.1996H166.86L164.493 11.9771H161.543L165.18 23.9629H168.41L170.993 16.3152H171.165L173.705 23.9629H176.955L180.593 11.9771H177.643L175.318 20.2222Z" fill="#2A3362"/>
<path d="M192.403 20.473V16.4613C192.403 13.201 189.927 11.7393 186.848 11.7393C183.578 11.7393 181.533 13.4659 181.253 16.0507H184.223C184.439 14.9236 185.3 14.3015 186.848 14.3015C188.397 14.3015 189.429 14.9482 189.429 16.2663V16.5722L184.586 16.9828C182.348 17.1758 180.715 18.2783 180.715 20.627C180.715 23.0476 182.588 24.1973 185.342 24.1973C187.566 24.1973 188.921 23.5074 189.75 22.4665H189.898C190.364 23.6368 191.31 23.9591 192.339 23.9591H193.587V21.518H193.307C192.682 21.518 192.403 21.1834 192.403 20.473ZM189.431 19.2022C189.431 21.0971 187.403 21.7192 185.665 21.7192C184.481 21.7192 183.707 21.3846 183.707 20.473C183.707 19.6518 184.374 19.2514 185.366 19.1549L189.433 18.8203L189.431 19.2022Z" fill="#2A3362"/>
<path d="M203.387 11.9771L199.921 20.6554H199.728L196.22 11.9771H193.012L198.026 23.9629H201.579L206.571 11.9771H203.387Z" fill="#2A3362"/>
<path d="M216.066 20.0789C215.697 21.0623 214.645 21.59 213.052 21.59C210.878 21.59 209.652 20.4875 209.459 18.882H218.885C218.928 18.5482 218.95 18.2112 218.949 17.8739C218.929 13.5625 216 11.7373 212.866 11.7373C209.228 11.7373 206.496 14.1599 206.496 18.0669C206.496 21.7809 209.121 24.2015 213.059 24.2015C216.354 24.2015 218.548 22.5734 219.001 20.0789H216.066ZM212.858 14.3509C214.753 14.3509 215.85 15.285 216.024 16.6092H209.516C209.798 15.3404 210.893 14.3509 212.851 14.3509H212.858Z" fill="#2A3362"/>
<path d="M96.8966 11.0945C96.8966 10.0392 97.564 9.58546 98.425 9.58546C98.8254 9.58956 99.2236 9.65382 99.6085 9.77639L100.104 7.37841C99.3856 7.09529 98.6288 6.94952 97.8663 6.94727C95.6706 6.94727 93.9063 8.24275 93.9063 10.9261V11.9773H91.3438V14.6032H93.9063V23.9631H96.8966V14.6011H100.245V11.9773H96.8966V11.0945Z" fill="#2A3362"/>
<path d="M125.731 8.59863H122.965L122.81 11.978H120.473V14.6039H122.755V20.5126C122.755 22.5246 123.677 24.2081 126.442 24.2081C127.159 24.2081 127.874 24.12 128.573 23.9453V21.4221C128.17 21.5227 127.759 21.5792 127.346 21.5904C125.861 21.5904 125.732 20.6563 125.732 19.9357V14.5977H128.682V11.978H125.731V8.59863Z" fill="#2A3362"/>
<path d="M135.055 8.59863H132.299L132.144 11.978H129.801V14.6039H132.083V20.5126C132.083 22.5246 133.005 24.2081 135.77 24.2081C136.486 24.2056 137.198 24.1155 137.896 23.9392V21.4221C137.493 21.5227 137.081 21.5792 136.668 21.5904C135.184 21.5904 135.055 20.6563 135.055 19.9357V14.5977H138.014V11.978H135.055V8.59863Z" fill="#2A3362"/>
<path d="M50 6.48937C50 4.56564 50.5051 2.92319 51.5652 1.74268L53.4088 3.79574C51.3569 6.0726 53.1488 13.1516 58.9912 19.6639C64.8335 26.1762 71.1938 28.1698 73.2439 25.8888L75.0875 27.9419C71.6289 31.7934 63.7513 29.0608 57.1568 21.7149C52.5829 16.6192 50 10.8378 50 6.48937Z" fill="#009A46"/>
<path d="M61.6275 29.7119C59.9001 29.7119 58.4252 29.1493 57.3633 27.9688L59.2069 25.9158C61.2551 28.1967 67.6118 26.2011 73.4596 19.6909C79.3075 13.1806 81.0957 6.1016 79.0475 3.82065L80.8911 1.76758C84.3515 5.61913 81.8958 14.3919 75.2995 21.7357C70.7237 26.8376 65.5322 29.7119 61.6275 29.7119Z" fill="#FF5805"/>
<path d="M75.904 18.798C74.785 15.2092 72.4989 11.3741 69.4662 7.99884C62.8717 0.652961 54.9941 -2.08173 51.5355 1.77188C51.2904 2.04699 51.5024 2.72656 52.0112 3.29321C52.52 3.85985 53.1302 4.0939 53.3754 3.82084C55.4255 1.53989 61.7822 3.53547 67.6282 10.0478C70.3936 13.1274 72.4547 16.5663 73.4484 19.7485C74.3185 22.5387 74.2337 24.7888 73.2198 25.918C72.9727 26.1911 73.1866 26.8727 73.6936 27.4373C74.2006 28.0019 74.8126 28.24 75.0597 27.9649C76.8314 25.9919 77.1319 22.7316 75.904 18.798Z" fill="#F5AFCB"/>
<path d="M80.8855 1.77175C79.1101 -0.205357 76.1862 -0.540007 72.6502 0.82939C69.4295 2.07355 65.9838 4.62141 62.9529 7.99665C56.3584 15.3405 53.9028 24.1132 57.3614 27.9668C57.6084 28.2399 58.2186 28.0038 58.7275 27.4392C59.2363 26.8746 59.4483 26.193 59.2013 25.9179C57.1475 23.6369 58.945 16.5579 64.7928 10.0456C67.5582 6.96601 70.6462 4.67068 73.5038 3.56408C76.0092 2.59708 78.0298 2.68947 79.0456 3.81866C79.2908 4.09171 79.9028 3.85561 80.4098 3.28897C80.9168 2.72232 81.1307 2.04481 80.8855 1.77175Z" fill="#FF9B00"/>
</svg>
