<svg width="241" height="30" viewBox="0 0 241 30" fill="none" xmlns="http://www.w3.org/2000/svg">
<path fill-rule="evenodd" clip-rule="evenodd" d="M51.7266 6.94336H54.6966V23.9612H51.7266V6.94336Z" fill="#2A3362"/>
<path d="M66.183 17.9227C66.183 20.2714 64.8261 21.3267 63.0194 21.3267C61.2127 21.3267 60.0052 20.2714 60.0052 18.0418V11.9771H57.0352V18.8097C57.0352 22.2116 58.9506 24.201 62.1364 24.201C64.1385 24.201 65.2575 23.3798 66.0079 22.4518H66.1812L66.4393 23.9629H69.1715V11.9771H66.183V17.9227Z" fill="#2A3362"/>
<path d="M95.3233 21.59C93.1497 21.59 91.9237 20.4875 91.7301 18.882H101.156C101.2 18.5482 101.221 18.2112 101.221 17.8739C101.201 13.5625 98.2711 11.7373 95.137 11.7373C91.4997 11.7373 88.7656 14.1599 88.7656 18.0669C88.7656 21.7809 91.3927 24.2015 95.3306 24.2015C98.6251 24.2015 100.819 22.5734 101.272 20.0789H98.3375C97.9706 21.0623 96.9161 21.59 95.3233 21.59ZM95.1389 14.3509C97.0341 14.3509 98.131 15.285 98.3043 16.6092H91.7946C92.073 15.3404 93.1718 14.3509 95.1297 14.3509H95.1389Z" fill="#2A3362"/>
<path d="M106.261 13.6978H106.077L105.797 11.9712H103.098V23.9632H106.068V18.81C106.068 16.4838 107.272 15.1904 109.511 15.1904C109.918 15.184 110.325 15.2241 110.725 15.3095V11.9774H110.31C108.33 11.9774 107.1 12.4331 106.261 13.6978Z" fill="#2A3362"/>
<path d="M125.318 20.2222H125.147L122.606 12.7203H119.55L117.053 20.1996H116.86L114.493 11.9771H111.543L115.18 23.9629H118.41L120.993 16.3152H121.165L123.705 23.9629H126.955L130.593 11.9771H127.643L125.318 20.2222Z" fill="#2A3362"/>
<path d="M142.403 20.473V16.4613C142.403 13.201 139.927 11.7393 136.848 11.7393C133.578 11.7393 131.533 13.4659 131.253 16.0507H134.223C134.439 14.9236 135.3 14.3015 136.848 14.3015C138.397 14.3015 139.429 14.9482 139.429 16.2663V16.5722L134.586 16.9828C132.348 17.1758 130.715 18.2783 130.715 20.627C130.715 23.0476 132.588 24.1973 135.342 24.1973C137.566 24.1973 138.921 23.5074 139.75 22.4665H139.898C140.364 23.6368 141.31 23.9591 142.339 23.9591H143.587V21.518H143.307C142.682 21.518 142.403 21.1834 142.403 20.473ZM139.431 19.2022C139.431 21.0971 137.403 21.7192 135.665 21.7192C134.481 21.7192 133.707 21.3846 133.707 20.473C133.707 19.6518 134.374 19.2514 135.366 19.1549L139.433 18.8203L139.431 19.2022Z" fill="#2A3362"/>
<path d="M153.387 11.9771L149.921 20.6554H149.728L146.22 11.9771H143.012L148.026 23.9629H151.579L156.571 11.9771H153.387Z" fill="#2A3362"/>
<path d="M166.066 20.0789C165.697 21.0623 164.645 21.59 163.052 21.59C160.878 21.59 159.652 20.4875 159.459 18.882H168.885C168.928 18.5482 168.95 18.2112 168.949 17.8739C168.929 13.5625 166 11.7373 162.866 11.7373C159.228 11.7373 156.496 14.1599 156.496 18.0669C156.496 21.7809 159.121 24.2015 163.059 24.2015C166.354 24.2015 168.548 22.5734 169.001 20.0789H166.066ZM162.858 14.3509C164.753 14.3509 165.85 15.285 166.024 16.6092H159.516C159.798 15.3404 160.893 14.3509 162.851 14.3509H162.858Z" fill="#2A3362"/>
<path d="M46.8966 11.0945C46.8966 10.0392 47.564 9.58546 48.425 9.58546C48.8254 9.58956 49.2236 9.65382 49.6085 9.77639L50.1045 7.37841C49.3856 7.09529 48.6288 6.94952 47.8663 6.94727C45.6706 6.94727 43.9063 8.24275 43.9063 10.9261V11.9773H41.3438V14.6032H43.9063V23.9631H46.8966V14.6011H50.2446V11.9773H46.8966V11.0945Z" fill="#2A3362"/>
<path d="M75.7306 8.59863H72.9652L72.8103 11.978H70.4727V14.6039H72.755V20.5126C72.755 22.5246 73.6768 24.2081 76.4422 24.2081C77.1591 24.2081 77.8739 24.12 78.5734 23.9453V21.4221C78.17 21.5227 77.7587 21.5792 77.3455 21.5904C75.8614 21.5904 75.7324 20.6563 75.7324 19.9357V14.5977H78.6821V11.978H75.7306V8.59863Z" fill="#2A3362"/>
<path d="M85.055 8.59863H82.2988L82.144 11.978H79.8008V14.6039H82.0831V20.5126C82.0831 22.5246 83.0049 24.2081 85.7703 24.2081C86.4856 24.2056 87.1983 24.1155 87.896 23.9392V21.4221C87.4926 21.5227 87.0813 21.5792 86.6681 21.5904C85.184 21.5904 85.055 20.6563 85.055 19.9357V14.5977H88.0139V11.978H85.055V8.59863Z" fill="#2A3362"/>
<path d="M0 6.48937C0 4.56564 0.505142 2.92319 1.5652 1.74268L3.40879 3.79574C1.35688 6.0726 3.14884 13.1516 8.99115 19.6639C14.8335 26.1762 21.1938 28.1698 23.2439 25.8888L25.0875 27.9419C21.6289 31.7934 13.7513 29.0608 7.15679 21.7149C2.58286 16.6192 0 10.8378 0 6.48937Z" fill="#009A46"/>
<path d="M11.6275 29.7119C9.90005 29.7119 8.42519 29.1493 7.36328 27.9688L9.20686 25.9158C11.2551 28.1967 17.6118 26.2011 23.4596 19.6909C29.3075 13.1806 31.0957 6.1016 29.0475 3.82065L30.8911 1.76758C34.3515 5.61913 31.8958 14.3919 25.2995 21.7357C20.7237 26.8376 15.5322 29.7119 11.6275 29.7119Z" fill="#FF5805"/>
<path d="M25.904 18.798C24.785 15.2092 22.4989 11.3741 19.4662 7.99884C12.8717 0.652961 4.99411 -2.08173 1.53555 1.77188C1.29035 2.04699 1.50237 2.72656 2.01119 3.29321C2.52002 3.85985 3.13025 4.0939 3.37544 3.82084C5.42551 1.53989 11.7822 3.53547 17.6282 10.0478C20.3936 13.1274 22.4547 16.5663 23.4484 19.7485C24.3185 22.5387 24.2337 24.7888 23.2198 25.918C22.9727 26.1911 23.1866 26.8727 23.6936 27.4373C24.2006 28.0019 24.8126 28.24 25.0597 27.9649C26.8314 25.9919 27.1319 22.7316 25.904 18.798Z" fill="#F5AFCB"/>
<path d="M30.8855 1.77175C29.1101 -0.205357 26.1862 -0.540007 22.6502 0.82939C19.4295 2.07355 15.9838 4.62141 12.9529 7.99665C6.35845 15.3405 3.9028 24.1132 7.36136 27.9668C7.6084 28.2399 8.21862 28.0038 8.72745 27.4392C9.23628 26.8746 9.44829 26.193 9.20125 25.9179C7.1475 23.6369 8.945 16.5579 14.7928 10.0456C17.5582 6.96601 20.6462 4.67068 23.5038 3.56408C26.0092 2.59708 28.0298 2.68947 29.0456 3.81866C29.2908 4.09171 29.9028 3.85561 30.4098 3.28897C30.9168 2.72232 31.1307 2.04481 30.8855 1.77175Z" fill="#FF9B00"/>
</svg>
