<svg width="176" height="199" viewBox="0 0 176 199" fill="none" xmlns="http://www.w3.org/2000/svg">
<g filter="url(#filter0_d_427_2690)">
<path d="M150 68.7421C150 108.374 122.456 123 88.4786 123C54.5012 123 27 80.8439 27 53.7399C27 14.1076 58.797 20.0883 92.7744 20.0883C130.073 25.7391 150 29.1098 150 68.7421Z" fill="#A40001"/>
</g>
<path d="M120.731 52.6245C117.977 58.2049 113.789 62.8014 108.675 65.8585C103.561 68.9156 97.7385 70.3023 91.9123 69.851C86.086 69.3998 80.5051 67.1298 75.8443 63.3156C71.1835 59.5014 67.6423 54.3062 65.6488 48.3581L68.9141 47.0737C70.6785 52.3384 73.8129 56.9366 77.9382 60.3126C82.0635 63.6886 87.0032 65.6978 92.16 66.0972C97.3169 66.4966 102.47 65.2692 106.997 62.5634C111.523 59.8576 115.23 55.7891 117.668 50.8499L120.731 52.6245Z" fill="#D9D9D9"/>
<path d="M132.347 58.3392C129.014 64.6606 123.778 70.1595 117.273 74.1713C110.768 78.1831 103.272 80.536 95.6912 80.9455C88.1104 81.355 80.7694 79.8036 74.5557 76.4789C68.342 73.1541 63.5216 68.1984 60.6772 62.2107L64.8594 60.3552C67.3769 65.655 71.6435 70.0413 77.1433 72.9841C82.6431 75.9268 89.1406 77.3 95.8504 76.9375C102.56 76.5751 109.195 74.4925 114.953 70.9417C120.711 67.3908 125.345 62.5236 128.295 56.9285L132.347 58.3392Z" fill="#D9D9D9"/>
<path d="M114.575 86.7801C107.943 91.0381 100.534 93.5197 93.2561 93.9207C85.9781 94.3217 79.1474 92.6247 73.6013 89.0377L76.4448 85.3705C81.3537 88.5454 87.3996 90.0474 93.8414 89.6924C100.283 89.3375 106.841 87.1411 112.711 83.3723L114.575 86.7801Z" fill="#D9D9D9"/>
<ellipse cx="74.5661" cy="100.631" rx="3.8278" ry="4.14688" fill="#D9D9D9"/>
<ellipse cx="112.828" cy="100.631" rx="3.8278" ry="4.14688" fill="#D9D9D9"/>
<rect x="54.4023" y="46.5837" width="13.8002" height="4.14688" fill="#D9D9D9"/>
<path d="M5.25 180.75C4.31667 180.75 3.66667 180.483 3.3 179.95C2.96667 179.417 2.78333 178.783 2.75 178.05C2.71667 177.283 2.7 176.6 2.7 176C2.7 171.833 3.2 167.733 4.2 163.7C5.2 159.667 6.33333 155.717 7.6 151.85C7.96667 150.717 8.46667 149.817 9.1 149.15C9.73333 148.45 10.6667 148.1 11.9 148.1C12.8333 148.1 13.6333 148.4 14.3 149C14.9667 149.6 15.5333 150.35 16 151.25C16.5 152.117 16.8833 152.967 17.15 153.8L20.3 163.35L20.5 163.55C20.6 163.45 20.6833 163.35 20.75 163.25C20.8167 163.15 20.8667 163.033 20.9 162.9C21.0667 162.433 21.3167 161.733 21.65 160.8C22.0167 159.833 22.4 158.817 22.8 157.75C23.2333 156.65 23.6167 155.65 23.95 154.75C24.2833 153.817 24.5167 153.183 24.65 152.85C24.9833 152.017 25.35 151.217 25.75 150.45C26.1833 149.683 26.7333 149.067 27.4 148.6C28.0667 148.1 28.9 147.85 29.9 147.85C30.9 147.85 31.75 148.183 32.45 148.85C33.15 149.483 33.7167 150.283 34.15 151.25C34.5833 152.183 34.9167 153.117 35.15 154.05C36.0167 157.25 36.6833 160.517 37.15 163.85C37.6167 167.15 37.85 170.45 37.85 173.75V175.75C37.55 176.55 37.1833 177.05 36.75 177.25C36.3167 177.45 35.7667 177.55 35.1 177.55C34.3333 177.55 33.7333 177.35 33.3 176.95C32.9 176.517 32.5833 175.983 32.35 175.35C32.15 174.717 32.0167 174.067 31.95 173.4C31.8833 172.7 31.8167 172.083 31.75 171.55C31.5167 169.117 31.2833 166.683 31.05 164.25C30.8167 161.783 30.4167 159.3 29.85 156.8L29.6 156.35H29.45C29.2167 157.05 28.9167 157.917 28.55 158.95C28.1833 159.95 27.8 160.983 27.4 162.05C27.0333 163.117 26.7 164.067 26.4 164.9C26.1 165.733 25.8833 166.317 25.75 166.65C25.5833 167.15 25.3167 167.783 24.95 168.55C24.6167 169.317 24.2 170.1 23.7 170.9C23.2 171.667 22.65 172.317 22.05 172.85C21.4833 173.35 20.8833 173.6 20.25 173.6C19.45 173.6 18.7167 173.217 18.05 172.45C17.3833 171.65 16.7667 170.633 16.2 169.4C15.6333 168.133 15.1 166.783 14.6 165.35C14.1333 163.917 13.7 162.533 13.3 161.2C12.9333 159.867 12.6 158.75 12.3 157.85C12.3 157.683 12.1667 157.467 11.9 157.2C11.7333 157.433 11.6167 157.633 11.55 157.8C11.5167 157.967 11.5 158.133 11.5 158.3C11.2 159.633 10.8833 160.967 10.55 162.3C10.25 163.6 10 164.933 9.8 166.3C9.7 166.9 9.6 167.483 9.5 168.05C9.43333 168.583 9.36667 169.017 9.3 169.35C9.3 169.65 9.25 170.117 9.15 170.75C9.08333 171.383 9 172.067 8.9 172.8C8.83333 173.5 8.75 174.15 8.65 174.75C8.58333 175.35 8.55 175.767 8.55 176C8.48333 176.667 8.33333 177.383 8.1 178.15C7.86667 178.883 7.51667 179.5 7.05 180C6.61667 180.5 6.01667 180.75 5.25 180.75ZM43.5762 181.5C42.8428 181.5 42.2262 181.233 41.7262 180.7C41.2595 180.167 41.0262 179.567 41.0262 178.9V177.95L42.7762 159.7V148.4C42.7762 147.7 42.8095 146.9 42.8762 146C42.9428 145.1 43.1762 144.317 43.5762 143.65C44.0095 142.983 44.7428 142.65 45.7762 142.65C46.7095 142.65 47.3595 142.967 47.7262 143.6C48.1262 144.233 48.3595 144.983 48.4262 145.85C48.5262 146.717 48.5762 147.483 48.5762 148.15C48.5762 150.083 48.4928 152.067 48.3262 154.1C48.1928 156.1 48.1095 158.283 48.0762 160.65H48.6762C48.7428 160.65 49.0428 160.567 49.5762 160.4C50.1095 160.2 50.7428 159.983 51.4762 159.75C52.2095 159.483 52.9262 159.217 53.6262 158.95C54.3595 158.65 54.9428 158.4 55.3762 158.2C55.9762 157.9 56.6428 157.567 57.3762 157.2C58.1095 156.8 58.8595 156.45 59.6262 156.15C60.3928 155.85 61.1095 155.7 61.7762 155.7C62.5428 155.7 63.1428 155.983 63.5762 156.55C64.0428 157.083 64.2762 157.733 64.2762 158.5C64.2762 159.4 63.9428 160.033 63.2762 160.4C62.6095 160.733 61.9428 161.033 61.2762 161.3C60.9428 161.467 60.3428 161.733 59.4762 162.1C58.6428 162.467 57.6928 162.867 56.6262 163.3C55.5595 163.7 54.5262 164.1 53.5262 164.5C52.5262 164.867 51.6762 165.183 50.9762 165.45V165.6L51.2262 165.85C51.4595 166.083 51.6928 166.283 51.9262 166.45C52.1928 166.617 52.4428 166.817 52.6762 167.05C53.1762 167.35 53.9262 167.833 54.9262 168.5C55.9262 169.167 56.9928 169.883 58.1262 170.65C59.2928 171.417 60.3595 172.133 61.3262 172.8C62.3262 173.433 63.0428 173.883 63.4762 174.15C63.9095 174.483 64.3762 174.833 64.8762 175.2C65.3762 175.533 65.8095 175.933 66.1762 176.4C66.5762 176.833 66.7762 177.35 66.7762 177.95C66.7762 178.75 66.5428 179.417 66.0762 179.95C65.6428 180.483 65.1095 180.75 64.4762 180.75C63.6762 180.75 62.8762 180.517 62.0762 180.05C61.3095 179.583 60.5595 179.033 59.8262 178.4C59.1262 177.767 58.4595 177.233 57.8262 176.8C57.4928 176.567 56.8595 176.15 55.9262 175.55C55.0262 174.95 54.0095 174.283 52.8762 173.55C51.7762 172.817 50.7262 172.117 49.7262 171.45C48.7595 170.783 48.0095 170.267 47.4762 169.9H47.2762L47.0762 170.35L46.0762 179.2C45.9428 179.867 45.6262 180.417 45.1262 180.85C44.6595 181.283 44.1428 181.5 43.5762 181.5ZM71.452 180.75C70.5186 180.75 69.8186 180.433 69.352 179.8C68.9186 179.133 68.702 178.367 68.702 177.5C68.702 175.5 68.8186 173.467 69.052 171.4C69.3186 169.333 69.452 167.333 69.452 165.4C69.452 162.067 69.3186 158.817 69.052 155.65C68.8186 152.483 68.702 149.233 68.702 145.9V144.6C68.9353 144.067 69.252 143.7 69.652 143.5C70.0853 143.267 70.5353 143.15 71.002 143.15C71.7686 143.15 72.3853 143.417 72.852 143.95C73.352 144.483 73.7353 145.133 74.002 145.9C74.2686 146.667 74.452 147.433 74.552 148.2C74.6853 148.967 74.752 149.6 74.752 150.1V166.7L75.052 167L75.102 166.95C76.002 166.05 76.852 165.033 77.652 163.9C78.4853 162.767 79.3353 161.683 80.202 160.65C81.102 159.583 82.0853 158.7 83.152 158C84.252 157.3 85.5186 156.95 86.952 156.95C88.2186 156.95 89.302 157.283 90.202 157.95C91.1353 158.617 91.8686 159.483 92.402 160.55C92.9353 161.617 93.2853 162.733 93.452 163.9L94.952 174.5V176C94.952 176.533 94.9186 177.1 94.852 177.7C94.7853 178.267 94.5853 178.75 94.252 179.15C93.952 179.55 93.4186 179.75 92.652 179.75C91.7853 179.75 91.102 179.417 90.602 178.75C90.1353 178.05 89.802 177.2 89.602 176.2C89.402 175.2 89.2686 174.217 89.202 173.25C89.1353 172.283 89.0686 171.517 89.002 170.95C88.9686 170.717 88.9186 170.283 88.852 169.65C88.8186 169.017 88.752 168.283 88.652 167.45C88.552 166.617 88.4186 165.817 88.252 165.05C88.0853 164.25 87.8686 163.6 87.602 163.1C87.3686 162.567 87.0686 162.3 86.702 162.3C86.1353 162.3 85.5686 162.533 85.002 163C84.4353 163.467 83.9686 163.95 83.602 164.45C81.8686 166.717 80.202 169.117 78.602 171.65C77.0353 174.15 75.4686 176.6 73.902 179C73.6353 179.433 73.302 179.833 72.902 180.2C72.502 180.567 72.0186 180.75 71.452 180.75ZM106.109 181.5C104.576 181.5 103.142 181.15 101.809 180.45C100.476 179.75 99.359 178.817 98.459 177.65C97.559 176.45 96.9757 175.1 96.709 173.6V171.05C96.709 169.183 97.0423 167.3 97.709 165.4C98.3757 163.5 99.3257 161.75 100.559 160.15C101.792 158.517 103.259 157.217 104.959 156.25C106.659 155.25 108.526 154.75 110.559 154.75C111.392 154.75 112.109 154.9 112.709 155.2C113.342 155.5 113.909 155.817 114.409 156.15C114.942 156.45 115.459 156.633 115.959 156.7C116.226 155.333 116.592 154.433 117.059 154C117.526 153.533 118.159 153.3 118.959 153.3C119.926 153.3 120.576 153.617 120.909 154.25C121.276 154.85 121.459 155.617 121.459 156.55C121.459 158.383 121.409 160.183 121.309 161.95C121.242 163.717 121.209 165.533 121.209 167.4C121.209 168.867 121.292 170.383 121.459 171.95C121.626 173.517 121.709 175.033 121.709 176.5V177.55C121.709 178.283 121.559 178.967 121.259 179.6C120.992 180.2 120.376 180.5 119.409 180.5C118.509 180.5 117.859 180.233 117.459 179.7C117.092 179.133 116.842 178.467 116.709 177.7C116.609 176.9 116.509 176.183 116.409 175.55L116.209 175.35C115.076 176.483 114.059 177.517 113.159 178.45C112.292 179.383 111.326 180.133 110.259 180.7C109.192 181.233 107.809 181.5 106.109 181.5ZM105.609 176.45C106.776 176.45 107.876 176.1 108.909 175.4C109.976 174.667 110.926 173.733 111.759 172.6C112.592 171.433 113.242 170.217 113.709 168.95C114.176 167.683 114.409 166.5 114.409 165.4C114.409 164.567 114.292 163.733 114.059 162.9C113.826 162.033 113.426 161.3 112.859 160.7C112.326 160.1 111.559 159.8 110.559 159.8C109.459 159.8 108.376 160.183 107.309 160.95C106.276 161.717 105.342 162.7 104.509 163.9C103.676 165.067 103.009 166.3 102.509 167.6C102.009 168.867 101.759 170.017 101.759 171.05C101.759 171.883 101.876 172.717 102.109 173.55C102.376 174.383 102.792 175.083 103.359 175.65C103.926 176.183 104.676 176.45 105.609 176.45ZM134.628 181.75C133.694 181.75 132.628 181.667 131.428 181.5C130.228 181.367 129.061 181.1 127.928 180.7C126.794 180.3 125.844 179.7 125.078 178.9C124.344 178.1 123.978 177.05 123.978 175.75C123.978 174.883 124.194 174.133 124.628 173.5C125.061 172.833 125.761 172.5 126.728 172.5C127.328 172.5 127.794 172.65 128.128 172.95C128.461 173.25 128.744 173.617 128.978 174.05C129.244 174.483 129.544 174.933 129.878 175.4C130.244 175.833 130.728 176.2 131.328 176.5C131.961 176.8 132.811 176.95 133.878 176.95C134.644 176.95 135.478 176.867 136.378 176.7C137.311 176.5 138.111 176.15 138.778 175.65C139.444 175.15 139.778 174.467 139.778 173.6C139.778 172.833 139.461 172.233 138.828 171.8C138.194 171.333 137.378 170.933 136.378 170.6C135.378 170.267 134.328 169.933 133.228 169.6C132.128 169.233 131.078 168.783 130.078 168.25C129.078 167.717 128.261 167.017 127.628 166.15C126.994 165.25 126.678 164.1 126.678 162.7C126.678 161.4 126.994 160.283 127.628 159.35C128.261 158.417 129.078 157.65 130.078 157.05C131.111 156.417 132.211 155.967 133.378 155.7C134.578 155.4 135.728 155.25 136.828 155.25C137.461 155.25 138.194 155.333 139.028 155.5C139.861 155.633 140.678 155.867 141.478 156.2C142.278 156.533 142.944 157 143.478 157.6C144.011 158.167 144.278 158.883 144.278 159.75C144.278 161.283 143.511 162.05 141.978 162.05H141.328C140.328 161.483 139.478 161.05 138.778 160.75C138.078 160.45 137.278 160.3 136.378 160.3C135.978 160.3 135.411 160.35 134.678 160.45C133.978 160.517 133.344 160.7 132.778 161C132.211 161.3 131.928 161.783 131.928 162.45C131.928 163.017 132.244 163.483 132.878 163.85C133.511 164.217 134.328 164.567 135.328 164.9C136.328 165.233 137.378 165.6 138.478 166C139.578 166.4 140.628 166.917 141.628 167.55C142.628 168.15 143.444 168.917 144.078 169.85C144.711 170.783 145.028 171.95 145.028 173.35C145.028 175.383 144.511 177.017 143.478 178.25C142.478 179.483 141.178 180.383 139.578 180.95C138.011 181.483 136.361 181.75 134.628 181.75ZM156.724 181.5C155.191 181.5 153.758 181.15 152.424 180.45C151.091 179.75 149.974 178.817 149.074 177.65C148.174 176.45 147.591 175.1 147.324 173.6V171.05C147.324 169.183 147.658 167.3 148.324 165.4C148.991 163.5 149.941 161.75 151.174 160.15C152.408 158.517 153.874 157.217 155.574 156.25C157.274 155.25 159.141 154.75 161.174 154.75C162.008 154.75 162.724 154.9 163.324 155.2C163.958 155.5 164.524 155.817 165.024 156.15C165.558 156.45 166.074 156.633 166.574 156.7C166.841 155.333 167.208 154.433 167.674 154C168.141 153.533 168.774 153.3 169.574 153.3C170.541 153.3 171.191 153.617 171.524 154.25C171.891 154.85 172.074 155.617 172.074 156.55C172.074 158.383 172.024 160.183 171.924 161.95C171.858 163.717 171.824 165.533 171.824 167.4C171.824 168.867 171.908 170.383 172.074 171.95C172.241 173.517 172.324 175.033 172.324 176.5V177.55C172.324 178.283 172.174 178.967 171.874 179.6C171.608 180.2 170.991 180.5 170.024 180.5C169.124 180.5 168.474 180.233 168.074 179.7C167.708 179.133 167.458 178.467 167.324 177.7C167.224 176.9 167.124 176.183 167.024 175.55L166.824 175.35C165.691 176.483 164.674 177.517 163.774 178.45C162.908 179.383 161.941 180.133 160.874 180.7C159.808 181.233 158.424 181.5 156.724 181.5ZM156.224 176.45C157.391 176.45 158.491 176.1 159.524 175.4C160.591 174.667 161.541 173.733 162.374 172.6C163.208 171.433 163.858 170.217 164.324 168.95C164.791 167.683 165.024 166.5 165.024 165.4C165.024 164.567 164.908 163.733 164.674 162.9C164.441 162.033 164.041 161.3 163.474 160.7C162.941 160.1 162.174 159.8 161.174 159.8C160.074 159.8 158.991 160.183 157.924 160.95C156.891 161.717 155.958 162.7 155.124 163.9C154.291 165.067 153.624 166.3 153.124 167.6C152.624 168.867 152.374 170.017 152.374 171.05C152.374 171.883 152.491 172.717 152.724 173.55C152.991 174.383 153.408 175.083 153.974 175.65C154.541 176.183 155.291 176.45 156.224 176.45Z" fill="#A40001"/>
<defs>
<filter id="filter0_d_427_2690" x="23" y="19.7668" width="131" height="111.233" filterUnits="userSpaceOnUse" color-interpolation-filters="sRGB">
<feFlood flood-opacity="0" result="BackgroundImageFix"/>
<feColorMatrix in="SourceAlpha" type="matrix" values="0 0 0 0 0 0 0 0 0 0 0 0 0 0 0 0 0 0 127 0" result="hardAlpha"/>
<feOffset dy="4"/>
<feGaussianBlur stdDeviation="2"/>
<feComposite in2="hardAlpha" operator="out"/>
<feColorMatrix type="matrix" values="0 0 0 0 0 0 0 0 0 0 0 0 0 0 0 0 0 0 0.25 0"/>
<feBlend mode="normal" in2="BackgroundImageFix" result="effect1_dropShadow_427_2690"/>
<feBlend mode="normal" in="SourceGraphic" in2="effect1_dropShadow_427_2690" result="shape"/>
</filter>
</defs>
</svg>
