<svg width="24" height="24" viewBox="0 0 24 24" fill="none" xmlns="http://www.w3.org/2000/svg">
<path fill-rule="evenodd" clip-rule="evenodd" d="M13.0609 16.0599C12.7796 16.3408 12.3984 16.4986 12.0009 16.4986C11.6034 16.4986 11.2221 16.3408 10.9409 16.0599L5.28288 10.4039C5.00161 10.1225 4.84366 9.74089 4.84375 9.34304C4.84384 8.94518 5.00198 8.56365 5.28338 8.28239C5.56477 8.00113 5.94637 7.84317 6.34423 7.84326C6.74209 7.84336 7.12361 8.00149 7.40488 8.28289L12.0009 12.8789L16.5969 8.28289C16.8797 8.00952 17.2585 7.85814 17.6518 7.86137C18.0451 7.8646 18.4214 8.02218 18.6996 8.30016C18.9779 8.57815 19.1358 8.95429 19.1394 9.34759C19.143 9.74088 18.992 10.1199 18.7189 10.4029L13.0619 16.0609L13.0609 16.0599Z" fill="black"/>
</svg>
