<svg width="410" height="357" viewBox="0 0 410 357" fill="none" xmlns="http://www.w3.org/2000/svg">
<path d="M75 275C68.125 275 62.2417 272.554 57.35 267.663C52.4583 262.771 50.0083 256.883 50 250V125C50 118.125 52.45 112.242 57.35 107.35C62.25 102.458 68.1333 100.008 75 100H87.5V75C87.5 57.7083 93.5958 42.9708 105.787 30.7875C117.979 18.6042 132.717 12.5083 150 12.5C167.292 12.5 182.033 18.5958 194.225 30.7875C206.417 42.9792 212.508 57.7167 212.5 75V100H225C231.875 100 237.762 102.45 242.662 107.35C247.562 112.25 250.008 118.133 250 125V250C250 256.875 247.554 262.762 242.662 267.663C237.771 272.562 231.883 275.008 225 275H75ZM75 250H225V125H75V250ZM150 212.5C156.875 212.5 162.762 210.054 167.662 205.163C172.562 200.271 175.008 194.383 175 187.5C175 180.625 172.554 174.742 167.662 169.85C162.771 164.958 156.883 162.508 150 162.5C143.125 162.5 137.242 164.95 132.35 169.85C127.458 174.75 125.008 180.633 125 187.5C125 194.375 127.45 200.262 132.35 205.163C137.25 210.062 143.133 212.508 150 212.5ZM112.5 100H187.5V75C187.5 64.5833 183.854 55.7292 176.562 48.4375C169.271 41.1458 160.417 37.5 150 37.5C139.583 37.5 130.729 41.1458 123.437 48.4375C116.146 55.7292 112.5 64.5833 112.5 75V100Z" fill="#A40001"/>
<path d="M222.497 336.167C216.768 336.167 211.865 334.129 207.789 330.052C203.713 325.976 201.671 321.07 201.664 315.333V211.167C201.664 205.438 203.706 200.535 207.789 196.458C211.872 192.382 216.775 190.34 222.497 190.333H232.914V169.5C232.914 155.09 237.994 142.809 248.154 132.656C258.313 122.504 270.595 117.424 284.997 117.417C299.407 117.417 311.692 122.497 321.852 132.656C332.011 142.816 337.088 155.097 337.081 169.5V190.333H347.497C353.227 190.333 358.133 192.375 362.216 196.458C366.299 200.542 368.338 205.445 368.331 211.167V315.333C368.331 321.063 366.293 325.969 362.216 330.052C358.14 334.135 353.234 336.174 347.497 336.167H222.497ZM222.497 315.333H347.497V211.167H222.497V315.333ZM284.997 284.083C290.727 284.083 295.633 282.045 299.716 277.969C303.799 273.892 305.838 268.986 305.831 263.25C305.831 257.521 303.793 252.618 299.716 248.542C295.64 244.465 290.734 242.424 284.997 242.417C279.268 242.417 274.365 244.458 270.289 248.542C266.213 252.625 264.171 257.528 264.164 263.25C264.164 268.979 266.206 273.885 270.289 277.969C274.372 282.052 279.275 284.09 284.997 284.083ZM253.747 190.333H316.247V169.5C316.247 160.82 313.209 153.441 307.133 147.365C301.056 141.288 293.678 138.25 284.997 138.25C276.317 138.25 268.938 141.288 262.862 147.365C256.786 153.441 253.747 160.82 253.747 169.5V190.333Z" fill="#A40001" fill-opacity="0.5"/>
</svg>
