<svg width="194" height="68" viewBox="0 0 194 68" fill="none" xmlns="http://www.w3.org/2000/svg">
<g filter="url(#filter0_d_427_2817)">
<path d="M64 33.5327C64 52.8655 50.5639 60 33.9895 60C17.4152 60 4 39.436 4 26.2146C4 6.88175 19.5107 9.79914 36.0851 9.79914C54.2796 12.5556 64 14.1999 64 33.5327Z" fill="#A40001"/>
</g>
<path d="M49.7234 25.6705C48.3798 28.3926 46.3372 30.6348 43.8424 32.1261C41.3477 33.6173 38.5076 34.2938 35.6655 34.0736C32.8234 33.8535 30.101 32.7462 27.8275 30.8856C25.5539 29.025 23.8265 26.4908 22.854 23.5893L24.4468 22.9627C25.3076 25.5309 26.8365 27.7739 28.8488 29.4208C30.8612 31.0676 33.2708 32.0477 35.7863 32.2425C38.3019 32.4373 40.8156 31.8386 43.0238 30.5187C45.2319 29.1988 47.0399 27.2142 48.2291 24.8048L49.7234 25.6705Z" fill="#D9D9D9"/>
<path d="M55.389 28.4582C53.763 31.5418 51.209 34.2243 48.0357 36.1812C44.8625 38.1382 41.2059 39.286 37.5079 39.4857C33.81 39.6855 30.229 38.9287 27.1979 37.3069C24.1668 35.685 21.8154 33.2676 20.4279 30.3468L22.468 29.4417C23.6961 32.0269 25.7773 34.1666 28.4601 35.6021C31.143 37.0376 34.3125 37.7074 37.5856 37.5306C40.8587 37.3538 44.0952 36.3379 46.9038 34.6058C49.7125 32.8736 51.973 30.4994 53.4122 27.7701L55.389 28.4582Z" fill="#D9D9D9"/>
<path d="M46.7204 42.3318C43.4853 44.4089 39.8711 45.6194 36.3208 45.815C32.7706 46.0106 29.4385 45.1828 26.7331 43.4331L28.1202 41.6442C30.5148 43.1929 33.464 43.9256 36.6063 43.7525C39.7487 43.5793 42.9476 42.5079 45.8111 40.6695L46.7204 42.3318Z" fill="#D9D9D9"/>
<ellipse cx="27.2032" cy="49.0883" rx="1.86722" ry="2.02287" fill="#D9D9D9"/>
<ellipse cx="45.8672" cy="49.0883" rx="1.86722" ry="2.02287" fill="#D9D9D9"/>
<rect x="17.3672" y="22.7236" width="6.73182" height="2.02287" fill="#D9D9D9"/>
<path d="M91.15 45.85C90.59 45.85 90.2 45.69 89.98 45.37C89.78 45.05 89.67 44.67 89.65 44.23C89.63 43.77 89.62 43.36 89.62 43C89.62 40.5 89.92 38.04 90.52 35.62C91.12 33.2 91.8 30.83 92.56 28.51C92.78 27.83 93.08 27.29 93.46 26.89C93.84 26.47 94.4 26.26 95.14 26.26C95.7 26.26 96.18 26.44 96.58 26.8C96.98 27.16 97.32 27.61 97.6 28.15C97.9 28.67 98.13 29.18 98.29 29.68L100.18 35.41L100.3 35.53C100.36 35.47 100.41 35.41 100.45 35.35C100.49 35.29 100.52 35.22 100.54 35.14C100.64 34.86 100.79 34.44 100.99 33.88C101.21 33.3 101.44 32.69 101.68 32.05C101.94 31.39 102.17 30.79 102.37 30.25C102.57 29.69 102.71 29.31 102.79 29.11C102.99 28.61 103.21 28.13 103.45 27.67C103.71 27.21 104.04 26.84 104.44 26.56C104.84 26.26 105.34 26.11 105.94 26.11C106.54 26.11 107.05 26.31 107.47 26.71C107.89 27.09 108.23 27.57 108.49 28.15C108.75 28.71 108.95 29.27 109.09 29.83C109.61 31.75 110.01 33.71 110.29 35.71C110.57 37.69 110.71 39.67 110.71 41.65V42.85C110.53 43.33 110.31 43.63 110.05 43.75C109.79 43.87 109.46 43.93 109.06 43.93C108.6 43.93 108.24 43.81 107.98 43.57C107.74 43.31 107.55 42.99 107.41 42.61C107.29 42.23 107.21 41.84 107.17 41.44C107.13 41.02 107.09 40.65 107.05 40.33C106.91 38.87 106.77 37.41 106.63 35.95C106.49 34.47 106.25 32.98 105.91 31.48L105.76 31.21H105.67C105.53 31.63 105.35 32.15 105.13 32.77C104.91 33.37 104.68 33.99 104.44 34.63C104.22 35.27 104.02 35.84 103.84 36.34C103.66 36.84 103.53 37.19 103.45 37.39C103.35 37.69 103.19 38.07 102.97 38.53C102.77 38.99 102.52 39.46 102.22 39.94C101.92 40.4 101.59 40.79 101.23 41.11C100.89 41.41 100.53 41.56 100.15 41.56C99.67 41.56 99.23 41.33 98.83 40.87C98.43 40.39 98.06 39.78 97.72 39.04C97.38 38.28 97.06 37.47 96.76 36.61C96.48 35.75 96.22 34.92 95.98 34.12C95.76 33.32 95.56 32.65 95.38 32.11C95.38 32.01 95.3 31.88 95.14 31.72C95.04 31.86 94.97 31.98 94.93 32.08C94.91 32.18 94.9 32.28 94.9 32.38C94.72 33.18 94.53 33.98 94.33 34.78C94.15 35.56 94 36.36 93.88 37.18C93.82 37.54 93.76 37.89 93.7 38.23C93.66 38.55 93.62 38.81 93.58 39.01C93.58 39.19 93.55 39.47 93.49 39.85C93.45 40.23 93.4 40.64 93.34 41.08C93.3 41.5 93.25 41.89 93.19 42.25C93.15 42.61 93.13 42.86 93.13 43C93.09 43.4 93 43.83 92.86 44.29C92.72 44.73 92.51 45.1 92.23 45.4C91.97 45.7 91.61 45.85 91.15 45.85ZM114.146 46.3C113.706 46.3 113.336 46.14 113.036 45.82C112.756 45.5 112.616 45.14 112.616 44.74V44.17L113.666 33.22V26.44C113.666 26.02 113.686 25.54 113.726 25C113.766 24.46 113.906 23.99 114.146 23.59C114.406 23.19 114.846 22.99 115.466 22.99C116.026 22.99 116.416 23.18 116.636 23.56C116.876 23.94 117.016 24.39 117.056 24.91C117.116 25.43 117.146 25.89 117.146 26.29C117.146 27.45 117.096 28.64 116.996 29.86C116.916 31.06 116.866 32.37 116.846 33.79H117.206C117.246 33.79 117.426 33.74 117.746 33.64C118.066 33.52 118.446 33.39 118.886 33.25C119.326 33.09 119.756 32.93 120.176 32.77C120.616 32.59 120.966 32.44 121.226 32.32C121.586 32.14 121.986 31.94 122.426 31.72C122.866 31.48 123.316 31.27 123.776 31.09C124.236 30.91 124.666 30.82 125.066 30.82C125.526 30.82 125.886 30.99 126.146 31.33C126.426 31.65 126.566 32.04 126.566 32.5C126.566 33.04 126.366 33.42 125.966 33.64C125.566 33.84 125.166 34.02 124.766 34.18C124.566 34.28 124.206 34.44 123.686 34.66C123.186 34.88 122.616 35.12 121.976 35.38C121.336 35.62 120.716 35.86 120.116 36.1C119.516 36.32 119.006 36.51 118.586 36.67V36.76L118.736 36.91C118.876 37.05 119.016 37.17 119.156 37.27C119.316 37.37 119.466 37.49 119.606 37.63C119.906 37.81 120.356 38.1 120.956 38.5C121.556 38.9 122.196 39.33 122.876 39.79C123.576 40.25 124.216 40.68 124.796 41.08C125.396 41.46 125.826 41.73 126.086 41.89C126.346 42.09 126.626 42.3 126.926 42.52C127.226 42.72 127.486 42.96 127.706 43.24C127.946 43.5 128.066 43.81 128.066 44.17C128.066 44.65 127.926 45.05 127.646 45.37C127.386 45.69 127.066 45.85 126.686 45.85C126.206 45.85 125.726 45.71 125.246 45.43C124.786 45.15 124.336 44.82 123.896 44.44C123.476 44.06 123.076 43.74 122.696 43.48C122.496 43.34 122.116 43.09 121.556 42.73C121.016 42.37 120.406 41.97 119.726 41.53C119.066 41.09 118.436 40.67 117.836 40.27C117.256 39.87 116.806 39.56 116.486 39.34H116.366L116.246 39.61L115.646 44.92C115.566 45.32 115.376 45.65 115.076 45.91C114.796 46.17 114.486 46.3 114.146 46.3ZM130.871 45.85C130.311 45.85 129.891 45.66 129.611 45.28C129.351 44.88 129.221 44.42 129.221 43.9C129.221 42.7 129.291 41.48 129.431 40.24C129.591 39 129.671 37.8 129.671 36.64C129.671 34.64 129.591 32.69 129.431 30.79C129.291 28.89 129.221 26.94 129.221 24.94V24.16C129.361 23.84 129.551 23.62 129.791 23.5C130.051 23.36 130.321 23.29 130.601 23.29C131.061 23.29 131.431 23.45 131.711 23.77C132.011 24.09 132.241 24.48 132.401 24.94C132.561 25.4 132.671 25.86 132.731 26.32C132.811 26.78 132.851 27.16 132.851 27.46V37.42L133.031 37.6L133.061 37.57C133.601 37.03 134.111 36.42 134.591 35.74C135.091 35.06 135.601 34.41 136.121 33.79C136.661 33.15 137.251 32.62 137.891 32.2C138.551 31.78 139.311 31.57 140.171 31.57C140.931 31.57 141.581 31.77 142.121 32.17C142.681 32.57 143.121 33.09 143.441 33.73C143.761 34.37 143.971 35.04 144.071 35.74L144.971 42.1V43C144.971 43.32 144.951 43.66 144.911 44.02C144.871 44.36 144.751 44.65 144.551 44.89C144.371 45.13 144.051 45.25 143.591 45.25C143.071 45.25 142.661 45.05 142.361 44.65C142.081 44.23 141.881 43.72 141.761 43.12C141.641 42.52 141.561 41.93 141.521 41.35C141.481 40.77 141.441 40.31 141.401 39.97C141.381 39.83 141.351 39.57 141.311 39.19C141.291 38.81 141.251 38.37 141.191 37.87C141.131 37.37 141.051 36.89 140.951 36.43C140.851 35.95 140.721 35.56 140.561 35.26C140.421 34.94 140.241 34.78 140.021 34.78C139.681 34.78 139.341 34.92 139.001 35.2C138.661 35.48 138.381 35.77 138.161 36.07C137.121 37.43 136.121 38.87 135.161 40.39C134.221 41.89 133.281 43.36 132.341 44.8C132.181 45.06 131.981 45.3 131.741 45.52C131.501 45.74 131.211 45.85 130.871 45.85ZM151.665 46.3C150.745 46.3 149.885 46.09 149.085 45.67C148.285 45.25 147.615 44.69 147.075 43.99C146.535 43.27 146.185 42.46 146.025 41.56V40.03C146.025 38.91 146.225 37.78 146.625 36.64C147.025 35.5 147.595 34.45 148.335 33.49C149.075 32.51 149.955 31.73 150.975 31.15C151.995 30.55 153.115 30.25 154.335 30.25C154.835 30.25 155.265 30.34 155.625 30.52C156.005 30.7 156.345 30.89 156.645 31.09C156.965 31.27 157.275 31.38 157.575 31.42C157.735 30.6 157.955 30.06 158.235 29.8C158.515 29.52 158.895 29.38 159.375 29.38C159.955 29.38 160.345 29.57 160.545 29.95C160.765 30.31 160.875 30.77 160.875 31.33C160.875 32.43 160.845 33.51 160.785 34.57C160.745 35.63 160.725 36.72 160.725 37.84C160.725 38.72 160.775 39.63 160.875 40.57C160.975 41.51 161.025 42.42 161.025 43.3V43.93C161.025 44.37 160.935 44.78 160.755 45.16C160.595 45.52 160.225 45.7 159.645 45.7C159.105 45.7 158.715 45.54 158.475 45.22C158.255 44.88 158.105 44.48 158.025 44.02C157.965 43.54 157.905 43.11 157.845 42.73L157.725 42.61C157.045 43.29 156.435 43.91 155.895 44.47C155.375 45.03 154.795 45.48 154.155 45.82C153.515 46.14 152.685 46.3 151.665 46.3ZM151.365 43.27C152.065 43.27 152.725 43.06 153.345 42.64C153.985 42.2 154.555 41.64 155.055 40.96C155.555 40.26 155.945 39.53 156.225 38.77C156.505 38.01 156.645 37.3 156.645 36.64C156.645 36.14 156.575 35.64 156.435 35.14C156.295 34.62 156.055 34.18 155.715 33.82C155.395 33.46 154.935 33.28 154.335 33.28C153.675 33.28 153.025 33.51 152.385 33.97C151.765 34.43 151.205 35.02 150.705 35.74C150.205 36.44 149.805 37.18 149.505 37.96C149.205 38.72 149.055 39.41 149.055 40.03C149.055 40.53 149.125 41.03 149.265 41.53C149.425 42.03 149.675 42.45 150.015 42.79C150.355 43.11 150.805 43.27 151.365 43.27ZM168.777 46.45C168.217 46.45 167.577 46.4 166.857 46.3C166.137 46.22 165.437 46.06 164.757 45.82C164.077 45.58 163.507 45.22 163.047 44.74C162.607 44.26 162.387 43.63 162.387 42.85C162.387 42.33 162.517 41.88 162.777 41.5C163.037 41.1 163.457 40.9 164.037 40.9C164.397 40.9 164.677 40.99 164.877 41.17C165.077 41.35 165.247 41.57 165.387 41.83C165.547 42.09 165.727 42.36 165.927 42.64C166.147 42.9 166.437 43.12 166.797 43.3C167.177 43.48 167.687 43.57 168.327 43.57C168.787 43.57 169.287 43.52 169.827 43.42C170.387 43.3 170.867 43.09 171.267 42.79C171.667 42.49 171.867 42.08 171.867 41.56C171.867 41.1 171.677 40.74 171.297 40.48C170.917 40.2 170.427 39.96 169.827 39.76C169.227 39.56 168.597 39.36 167.937 39.16C167.277 38.94 166.647 38.67 166.047 38.35C165.447 38.03 164.957 37.61 164.577 37.09C164.197 36.55 164.007 35.86 164.007 35.02C164.007 34.24 164.197 33.57 164.577 33.01C164.957 32.45 165.447 31.99 166.047 31.63C166.667 31.25 167.327 30.98 168.027 30.82C168.747 30.64 169.437 30.55 170.097 30.55C170.477 30.55 170.917 30.6 171.417 30.7C171.917 30.78 172.407 30.92 172.887 31.12C173.367 31.32 173.767 31.6 174.087 31.96C174.407 32.3 174.567 32.73 174.567 33.25C174.567 34.17 174.107 34.63 173.187 34.63H172.797C172.197 34.29 171.687 34.03 171.267 33.85C170.847 33.67 170.367 33.58 169.827 33.58C169.587 33.58 169.247 33.61 168.807 33.67C168.387 33.71 168.007 33.82 167.667 34C167.327 34.18 167.157 34.47 167.157 34.87C167.157 35.21 167.347 35.49 167.727 35.71C168.107 35.93 168.597 36.14 169.197 36.34C169.797 36.54 170.427 36.76 171.087 37C171.747 37.24 172.377 37.55 172.977 37.93C173.577 38.29 174.067 38.75 174.447 39.31C174.827 39.87 175.017 40.57 175.017 41.41C175.017 42.63 174.707 43.61 174.087 44.35C173.487 45.09 172.707 45.63 171.747 45.97C170.807 46.29 169.817 46.45 168.777 46.45ZM182.035 46.3C181.115 46.3 180.255 46.09 179.455 45.67C178.655 45.25 177.985 44.69 177.445 43.99C176.905 43.27 176.555 42.46 176.395 41.56V40.03C176.395 38.91 176.595 37.78 176.995 36.64C177.395 35.5 177.965 34.45 178.705 33.49C179.445 32.51 180.325 31.73 181.345 31.15C182.365 30.55 183.485 30.25 184.705 30.25C185.205 30.25 185.635 30.34 185.995 30.52C186.375 30.7 186.715 30.89 187.015 31.09C187.335 31.27 187.645 31.38 187.945 31.42C188.105 30.6 188.325 30.06 188.605 29.8C188.885 29.52 189.265 29.38 189.745 29.38C190.325 29.38 190.715 29.57 190.915 29.95C191.135 30.31 191.245 30.77 191.245 31.33C191.245 32.43 191.215 33.51 191.155 34.57C191.115 35.63 191.095 36.72 191.095 37.84C191.095 38.72 191.145 39.63 191.245 40.57C191.345 41.51 191.395 42.42 191.395 43.3V43.93C191.395 44.37 191.305 44.78 191.125 45.16C190.965 45.52 190.595 45.7 190.015 45.7C189.475 45.7 189.085 45.54 188.845 45.22C188.625 44.88 188.475 44.48 188.395 44.02C188.335 43.54 188.275 43.11 188.215 42.73L188.095 42.61C187.415 43.29 186.805 43.91 186.265 44.47C185.745 45.03 185.165 45.48 184.525 45.82C183.885 46.14 183.055 46.3 182.035 46.3ZM181.735 43.27C182.435 43.27 183.095 43.06 183.715 42.64C184.355 42.2 184.925 41.64 185.425 40.96C185.925 40.26 186.315 39.53 186.595 38.77C186.875 38.01 187.015 37.3 187.015 36.64C187.015 36.14 186.945 35.64 186.805 35.14C186.665 34.62 186.425 34.18 186.085 33.82C185.765 33.46 185.305 33.28 184.705 33.28C184.045 33.28 183.395 33.51 182.755 33.97C182.135 34.43 181.575 35.02 181.075 35.74C180.575 36.44 180.175 37.18 179.875 37.96C179.575 38.72 179.425 39.41 179.425 40.03C179.425 40.53 179.495 41.03 179.635 41.53C179.795 42.03 180.045 42.45 180.385 42.79C180.725 43.11 181.175 43.27 181.735 43.27Z" fill="#A40001"/>
<defs>
<filter id="filter0_d_427_2817" x="0" y="9.64233" width="68" height="58.3577" filterUnits="userSpaceOnUse" color-interpolation-filters="sRGB">
<feFlood flood-opacity="0" result="BackgroundImageFix"/>
<feColorMatrix in="SourceAlpha" type="matrix" values="0 0 0 0 0 0 0 0 0 0 0 0 0 0 0 0 0 0 127 0" result="hardAlpha"/>
<feOffset dy="4"/>
<feGaussianBlur stdDeviation="2"/>
<feComposite in2="hardAlpha" operator="out"/>
<feColorMatrix type="matrix" values="0 0 0 0 0 0 0 0 0 0 0 0 0 0 0 0 0 0 0.25 0"/>
<feBlend mode="normal" in2="BackgroundImageFix" result="effect1_dropShadow_427_2817"/>
<feBlend mode="normal" in="SourceGraphic" in2="effect1_dropShadow_427_2817" result="shape"/>
</filter>
</defs>
</svg>
