<svg width="51" height="50" viewBox="0 0 51 50" fill="none" xmlns="http://www.w3.org/2000/svg">
<circle opacity="0.2" cx="14.5" cy="13" r="13" fill="#A40001" fill-opacity="0.5"/>
<path d="M25.3655 31.2847H23.874L24.4404 32.6645L27.7118 40.6328L27.7124 40.6344C27.7224 40.6584 27.7219 40.6805 27.713 40.7026C27.7037 40.7259 27.6887 40.7396 27.6752 40.7463L24.8032 41.998L24.8027 41.9982C24.8006 41.9992 24.7991 41.9996 24.7982 41.9999C24.7975 41.9997 24.7962 41.9994 24.7944 41.9986C24.7861 41.9951 24.7694 41.9841 24.7571 41.957L21.652 34.399L21.0727 32.9889L20.0101 34.0819L14.9322 39.3048C14.9269 39.3102 14.9225 39.3141 14.9192 39.3168C14.9188 39.3167 14.9184 39.3165 14.918 39.3163C14.9051 39.3105 14.8929 39.3002 14.8854 39.2891C14.8821 39.2842 14.8799 39.2794 14.8783 39.2744C14.8768 39.2697 14.875 39.2617 14.875 39.2486V14.0722C14.875 14.0543 14.8776 14.0447 14.8788 14.0409C14.8801 14.0368 14.8817 14.0337 14.8839 14.0306C14.8891 14.0232 14.9006 14.0124 14.9181 14.0052C14.9189 14.0048 14.9198 14.0045 14.9206 14.0042L14.932 14.016L31.5968 31.1571L31.6062 31.1668L31.6159 31.1762C31.6211 31.1813 31.6235 31.1846 31.6243 31.1858C31.6243 31.186 31.6244 31.1864 31.6245 31.1868C31.6254 31.1923 31.6262 31.2116 31.6152 31.2384C31.6042 31.2653 31.5894 31.2801 31.5832 31.2847C31.5827 31.2847 31.5821 31.2847 31.5814 31.2847H25.3655Z" stroke="#A40001" stroke-width="2"/>
</svg>
