<svg width="100" height="100" viewBox="0 0 100 100" fill="none" xmlns="http://www.w3.org/2000/svg">
<path d="M68.75 39.1667L31.25 17.5417" stroke="#A40001" stroke-width="5" stroke-linecap="round" stroke-linejoin="round"/>
<path d="M87.5 66.6666V33.3333C87.4985 31.8719 87.1127 30.4366 86.3814 29.1714C85.6501 27.9062 84.5989 26.8556 83.3333 26.1249L54.1667 9.45825C52.8998 8.72685 51.4628 8.3418 50 8.3418C48.5372 8.3418 47.1002 8.72685 45.8333 9.45825L16.6667 26.1249C15.4011 26.8556 14.3499 27.9062 13.6186 29.1714C12.8873 30.4366 12.5015 31.8719 12.5 33.3333V66.6666C12.5015 68.1279 12.8873 69.5632 13.6186 70.8284C14.3499 72.0936 15.4011 73.1442 16.6667 73.8749L45.8333 90.5416C47.1002 91.273 48.5372 91.658 50 91.658C51.4628 91.658 52.8998 91.273 54.1667 90.5416L83.3333 73.8749C84.5989 73.1442 85.6501 72.0936 86.3814 70.8284C87.1127 69.5632 87.4985 68.1279 87.5 66.6666Z" stroke="#A40001" stroke-width="5" stroke-linecap="round" stroke-linejoin="round"/>
<path d="M13.625 29L50 50.0417L86.375 29" stroke="#A40001" stroke-width="5" stroke-linecap="round" stroke-linejoin="round"/>
<path d="M50 92V50" stroke="#A40001" stroke-width="5" stroke-linecap="round" stroke-linejoin="round"/>
</svg>
