<svg width="24" height="24" viewBox="0 0 24 24" fill="none" xmlns="http://www.w3.org/2000/svg">
<path fill-rule="evenodd" clip-rule="evenodd" d="M9.95 1.25002H10.05C10.714 1.25002 11.287 1.25002 11.746 1.31202C12.238 1.37802 12.709 1.52702 13.091 1.90902C13.473 2.29102 13.622 2.76302 13.688 3.25402C13.728 3.54302 13.742 3.87702 13.747 4.25002H14.32C15.2125 4.25008 16.0927 4.4579 16.891 4.85702L17.009 4.91702C17.953 3.89702 19.623 3.87702 20.875 4.60002C22.287 5.41502 23.148 7.16402 22.315 8.60702C21.481 10.05 19.537 10.178 18.125 9.36302C17.005 8.71602 16.23 7.48102 16.376 6.27702L16.22 6.19902C15.6301 5.90395 14.9796 5.75022 14.32 5.75002H13.75V7.00002L13.749 7.04402C16.526 8.28702 18.517 10.87 18.731 13.944C18.751 14.028 18.755 14.116 18.745 14.204C18.748 14.3 18.75 14.397 18.75 14.495C18.75 16.616 17.9 18.545 16.516 19.999L16.498 20.017C16.2832 20.256 16.0465 20.4743 15.791 20.669C15.497 20.885 15.147 21.071 14.649 21.285C13.564 21.75 12.775 21.75 11.517 21.75H8.483C7.225 21.75 6.436 21.75 5.351 21.285C4.853 21.071 4.503 20.885 4.209 20.669C3.9535 20.4742 3.7168 20.256 3.502 20.017L3.484 20C2.1 18.545 1.25 16.616 1.25 14.495C1.25 11.18 3.31 8.36102 6.251 7.04502C6.25022 7.03004 6.24989 7.01503 6.25 7.00002V5.50002L6.251 5.46002C6.25035 5.44737 6.25002 5.4347 6.25 5.42202V4.95002C6.25 4.28502 6.25 3.71202 6.312 3.25302C6.378 2.76202 6.527 2.29002 6.909 1.90802C7.291 1.52602 7.763 1.37702 8.254 1.31102C8.713 1.24902 9.286 1.24902 9.951 1.24902M17.054 12.929C16.299 9.98702 13.464 7.75202 10.009 7.74902H9.993C6.733 7.75202 4.025 9.74102 3.096 12.437C3.382 12.563 3.672 12.703 3.961 12.844L4.081 12.903C4.443 13.08 4.808 13.258 5.191 13.427C6.04 13.803 6.943 14.121 7.946 14.234C9.205 14.376 10.162 13.939 11.316 13.412L11.327 13.407C12.461 12.889 13.787 12.289 15.522 12.577C16.051 12.665 16.576 12.785 17.054 12.929ZM2.774 13.94C2.942 14.018 3.118 14.103 3.302 14.193L3.423 14.253C3.783 14.428 4.173 14.618 4.583 14.8C5.502 15.207 6.562 15.589 7.777 15.726C9.453 15.914 10.745 15.323 11.84 14.822L11.949 14.772C13.091 14.252 14.036 13.852 15.275 14.057C16.05 14.187 16.752 14.383 17.249 14.586C17.226 16.259 16.547 17.79 15.429 18.965C15.198 19.207 15.073 19.336 14.905 19.459C14.739 19.581 14.504 19.715 14.058 19.906C13.273 20.243 12.768 20.25 11.458 20.25H8.542C7.232 20.25 6.727 20.243 5.942 19.906C5.496 19.716 5.262 19.581 5.095 19.459C4.927 19.336 4.802 19.207 4.571 18.965C3.433 17.769 2.75 16.204 2.75 14.495C2.75 14.308 2.758 14.123 2.774 13.94ZM12.25 6.25002H7.75V5.71702C7.809 5.70702 7.869 5.69202 7.929 5.67402C8.131 5.61102 8.366 5.48602 8.537 5.23902C8.703 5.00102 8.75 4.73402 8.75 4.50002C8.75 4.26602 8.703 3.99902 8.537 3.76002C8.38886 3.55071 8.1742 3.39774 7.928 3.32602C7.89368 3.31573 7.85899 3.30673 7.824 3.29902C7.867 3.09302 7.923 3.01602 7.97 2.96902C8.027 2.91302 8.129 2.84202 8.454 2.79902C8.801 2.75202 9.272 2.75002 10 2.75002C10.728 2.75002 11.2 2.75202 11.546 2.79802C11.871 2.84202 11.973 2.91302 12.03 2.97002C12.087 3.02702 12.158 3.12902 12.202 3.45402C12.248 3.80102 12.25 4.27202 12.25 5.00002V6.25002ZM18.875 8.06402C17.895 7.49902 17.713 6.57702 17.985 6.10702C18.255 5.63702 19.145 5.33402 20.125 5.89902C21.105 6.46502 21.287 7.38702 21.015 7.85702C20.745 8.32702 19.855 8.63002 18.875 8.06402Z" fill="black"/>
</svg>
