<svg width="25" height="24" viewBox="0 0 25 24" fill="none" xmlns="http://www.w3.org/2000/svg">
<path d="M11.5683 1.45898C11.9008 0.615234 13.0958 0.615234 13.4283 1.45898L15.987 7.94648C16.0372 8.07432 16.1131 8.19046 16.2101 8.28767C16.3071 8.38487 16.4231 8.46106 16.5508 8.51148L23.0395 11.0702C23.8833 11.4027 23.8833 12.5977 23.0395 12.9302L16.552 15.489C16.4242 15.5391 16.3081 15.6151 16.2108 15.712C16.1136 15.809 16.0375 15.925 15.987 16.0527L13.4283 22.5415C13.0958 23.3852 11.9008 23.3852 11.5683 22.5415L9.00953 16.054C8.95939 15.9261 8.88346 15.81 8.78647 15.7128C8.68948 15.6156 8.57351 15.5394 8.44578 15.489L1.95703 12.9302C1.11328 12.5977 1.11328 11.4027 1.95703 11.0702L8.44453 8.51148C8.57237 8.46134 8.68851 8.38541 8.78571 8.28842C8.88292 8.19143 8.95911 8.07546 9.00953 7.94773L11.5683 1.45898Z" stroke="white" stroke-width="1.5" stroke-linecap="round" stroke-linejoin="round"/>
<path d="M4.0625 5.125C4.92544 5.125 5.625 4.42544 5.625 3.5625C5.625 2.69956 4.92544 2 4.0625 2C3.19956 2 2.5 2.69956 2.5 3.5625C2.5 4.42544 3.19956 5.125 4.0625 5.125Z" fill="black"/>
<path d="M21.25 22C21.9404 22 22.5 21.4404 22.5 20.75C22.5 20.0596 21.9404 19.5 21.25 19.5C20.5596 19.5 20 20.0596 20 20.75C20 21.4404 20.5596 22 21.25 22Z" fill="white"/>
</svg>
